<?xml version="1.0" standalone="no"?>
<!DOCTYPE svg PUBLIC "-//W3C//DTD SVG 20010904//EN"
 "http://www.w3.org/TR/2001/REC-SVG-20010904/DTD/svg10.dtd">
<svg version="1.0" xmlns="http://www.w3.org/2000/svg"
 width="512.000000pt" height="512.000000pt" viewBox="0 0 512.000000 512.000000"
 preserveAspectRatio="xMidYMid meet">
<metadata>
Created by potrace 1.14, written by Peter Selinger 2001-2017
</metadata>
<g transform="translate(0.000000,512.000000) scale(0.100000,-0.100000)"
fill="#000000" stroke="none">
<path d="M2353 4977 c-18 -7 -33 -16 -34 -20 -1 -8 303 -324 494 -514 291
-289 447 -447 747 -752 184 -187 337 -341 340 -341 4 0 4 922 0 1213 0 9 -6
17 -14 17 -8 0 -21 6 -28 13 -7 8 -25 20 -39 28 -15 8 -46 25 -70 38 -24 13
-46 23 -48 22 -2 -2 -7 1 -10 6 -7 10 -212 113 -233 117 -7 2 -22 6 -33 10
-23 9 -81 31 -110 42 -11 4 -24 8 -30 9 -18 2 -129 37 -146 45 -9 5 -25 7 -35
6 -11 -2 -24 0 -30 5 -6 5 -26 9 -45 10 -19 2 -39 6 -44 10 -6 5 -24 7 -40 5
-17 -1 -39 2 -50 7 -11 6 -50 11 -86 12 -36 1 -74 7 -85 12 -10 6 -28 9 -39 6
-33 -6 -258 -7 -280 -1 -11 4 -35 1 -52 -5z"/>
<path d="M2067 4933 c-5 -4 -32 -9 -94 -16 -12 -1 -25 -5 -29 -9 -4 -5 -20 -8
-35 -8 -15 0 -30 -4 -33 -9 -5 -7 -41 -19 -81 -26 -14 -3 -47 -15 -65 -24 -9
-5 -31 -12 -50 -16 -19 -4 -45 -14 -57 -22 -12 -8 -28 -16 -35 -17 -21 -3
-273 -129 -276 -138 -2 -4 -8 -8 -13 -8 -5 0 -28 -13 -51 -30 -22 -16 -47 -30
-55 -30 -7 0 -13 -4 -13 -8 0 -5 -23 -23 -50 -41 -28 -18 -56 -38 -63 -45 -6
-6 -27 -22 -46 -35 -18 -13 -48 -39 -67 -58 -18 -18 -36 -33 -40 -33 -6 0
-176 -173 -228 -233 -16 -19 -29 -38 -28 -43 2 -7 2267 -15 2284 -7 3 2 -94
105 -218 231 -614 624 -637 645 -657 625z"/>
<path d="M4069 4436 c-3 -3 -3 -2264 0 -2300 1 -5 49 38 109 97 310 308 498
491 503 491 4 1 37 33 74 71 37 39 91 95 120 125 45 46 54 61 53 90 0 19 -3
39 -6 45 -3 5 -6 21 -7 35 -1 14 -7 35 -14 48 -6 12 -9 22 -6 22 3 0 -1 15 -8
33 -8 17 -12 38 -10 45 3 6 0 12 -6 12 -6 0 -10 3 -9 8 3 11 -13 76 -22 87 -4
6 -10 22 -13 36 -4 14 -14 43 -24 65 -9 21 -17 41 -18 44 -5 24 -19 56 -27 61
-5 3 -10 12 -12 20 -7 41 -158 305 -219 384 -63 81 -97 129 -97 137 0 5 -4 6
-10 3 -5 -3 -10 -2 -10 3 0 18 -143 168 -286 300 -48 44 -48 44 -55 38z"/>
<path d="M526 3914 c-22 -23 -46 -54 -46 -59 0 -3 -24 -47 -53 -98 -47 -80
-92 -171 -129 -257 -6 -14 -17 -38 -24 -55 -12 -28 -25 -63 -29 -75 -6 -24
-18 -59 -25 -75 -10 -23 -50 -177 -56 -215 -11 -72 -21 -117 -28 -128 -4 -6
-9 -44 -12 -84 -3 -40 -7 -93 -10 -118 -3 -42 -5 -309 -1 -427 1 -45 3 -50 16
-40 8 7 115 113 238 237 122 124 484 488 803 809 319 322 580 587 580 590 0 3
-273 6 -607 6 -441 0 -609 -3 -617 -11z"/>
<path d="M991 2932 c-5 -10 -199 -209 -430 -442 -292 -294 -417 -427 -411
-435 6 -7 11 -25 13 -41 2 -17 6 -34 9 -39 3 -6 8 -27 12 -47 6 -33 38 -141
53 -178 3 -8 7 -19 8 -25 0 -5 7 -23 14 -40 7 -16 14 -34 15 -40 16 -64 152
-325 223 -427 18 -26 33 -50 33 -53 0 -6 51 -74 83 -109 9 -11 17 -23 17 -26
0 -4 15 -23 33 -42 84 -90 114 -127 110 -132 -3 -3 6 -10 20 -17 13 -6 30 -21
36 -33 7 -11 27 -32 46 -46 18 -14 56 -45 84 -68 l51 -44 0 1151 c0 633 -2
1151 -5 1151 -2 0 -9 -8 -14 -18z"/>
<path d="M4899 2721 c-76 -77 -788 -775 -872 -856 -37 -36 -72 -65 -77 -65 -6
0 -10 -6 -10 -13 0 -7 -135 -146 -299 -309 -165 -163 -298 -298 -296 -300 2
-1 274 -3 605 -2 l602 1 19 24 c74 96 256 469 274 561 2 9 9 26 15 37 6 12 8
21 4 21 -3 0 -1 7 6 15 7 8 10 15 7 15 -4 0 0 18 8 40 8 22 14 43 14 45 0 5 4
28 17 85 20 91 34 173 30 177 -3 3 0 16 5 30 5 14 12 71 14 127 6 109 8 126
16 141 8 15 5 128 -4 143 -5 6 -9 39 -11 72 -1 33 -4 61 -7 63 -2 2 -29 -21
-60 -52z"/>
<path d="M1175 1130 l0 -611 25 -14 c14 -8 36 -20 50 -27 14 -7 30 -18 37 -24
6 -6 37 -24 70 -39 32 -16 60 -31 63 -34 8 -10 104 -52 110 -49 3 2 19 -7 37
-20 17 -12 41 -22 52 -22 12 0 21 -4 21 -10 0 -5 3 -9 8 -9 9 2 1 4 102 -32
47 -16 94 -31 105 -33 11 -2 20 -4 20 -6 0 -1 11 -3 23 -4 13 -2 27 -7 30 -12
4 -5 18 -10 32 -11 37 -2 93 -12 110 -20 8 -3 31 -7 50 -9 36 -3 88 -10 153
-18 20 -3 46 -10 56 -15 10 -6 21 -7 25 -4 9 9 366 10 366 1 0 -4 14 -2 30 3
17 6 30 14 30 17 0 7 -1595 1612 -1601 1612 -2 0 -4 -275 -4 -610z"/>
<path d="M2562 579 c325 -325 434 -429 447 -423 9 3 27 7 41 9 14 1 32 5 41 9
10 4 23 6 30 5 8 -2 25 3 37 10 13 7 26 10 29 7 4 -3 11 -1 18 4 6 5 20 11 31
13 10 2 28 7 39 11 11 5 37 14 58 22 21 8 42 12 47 9 4 -2 13 2 20 10 7 8 18
15 25 15 7 0 39 12 71 26 73 32 96 42 108 42 5 0 12 6 17 14 5 7 12 14 16 14
27 5 53 18 53 27 0 6 3 8 6 5 3 -4 22 5 41 18 20 13 41 24 48 24 7 0 16 7 19
16 3 8 10 13 15 10 5 -4 11 -3 13 1 1 5 37 31 78 58 41 28 83 58 92 68 10 9
23 17 28 17 6 0 26 15 44 33 50 49 100 87 114 87 6 0 12 5 12 11 0 6 36 48 79
93 43 44 95 100 115 123 l37 41 -1150 0 -1149 1 430 -430z"/>
</g>
</svg>
