<svg xmlns="http://www.w3.org/2000/svg" style="display: none;">
  <symbol id="map-pin" viewBox="0 0 32 32">
    <title>map-pin</title>
    <path fill="#6B7280" fill-rule="evenodd" d="M7.515 4.64C9.765 2.31 12.818 1 16 1c3.183 0 6.235 1.31 8.485 3.64C26.735 6.97 28 10.13 28 13.426c0 3.296-1.264 6.457-3.515 8.787L16 31l-8.485-8.787a12.464 12.464 0 0 1-2.601-4.031A12.81 12.81 0 0 1 4 13.426c0-1.632.31-3.247.914-4.755a12.464 12.464 0 0 1 2.6-4.031ZM16 16.977a3.37 3.37 0 0 0 2.424-1.04 3.615 3.615 0 0 0 1.005-2.51c0-.942-.362-1.845-1.005-2.511A3.37 3.37 0 0 0 16 9.876a3.37 3.37 0 0 0-2.424 1.04 3.615 3.615 0 0 0-1.004 2.51c0 .942.361 1.845 1.004 2.51A3.37 3.37 0 0 0 16 16.977Z" clip-rule="evenodd" />
  </symbol>
  <symbol id="magnifying-glass" viewBox="0 0 32 32">
    <title>magnifying-glass</title>
    <path fill="#6B7280" stroke="#6B7280" stroke-width="1.251" d="m20.925 18.42-.307.43.374.374 9.035 9.034a1.251 1.251 0 0 1-1.769 1.769l-9.033-9.033-.374-.373-.43.306A10.632 10.632 0 0 1 1.625 12.26a10.632 10.632 0 1 1 19.3 6.16ZM12.259 4.128a8.131 8.131 0 1 0 0 16.262 8.131 8.131 0 0 0 0-16.262Z" />
  </symbol>
  <symbol id="x-mark" viewBox="0 0 32 32">
    <title>x-mark</title>
    <path fill="#6B7280" fill-rule="evenodd" d="M1.731 1.763a2.496 2.496 0 0 1 3.532 0l10.721 10.733L26.706 1.763a2.498 2.498 0 1 1 3.532 3.535L19.516 16.031l10.722 10.732A2.501 2.501 0 0 1 28.463 31a2.496 2.496 0 0 1-1.757-.702L15.984 19.566 5.263 30.298a2.496 2.496 0 0 1-4.233-1.776 2.501 2.501 0 0 1 .701-1.759l10.722-10.732L1.73 5.298a2.501 2.501 0 0 1 0-3.535Z" clip-rule="evenodd" />
  </symbol>
  <symbol id="calendar" viewBox="0 0 32 32">
    <title>calendar</title>
    <path fill="var(--white)" stroke="var(--white)" d="M6.625 5.25h.5V2.875a1.375 1.375 0 0 1 2.347-.972l.352-.352-.352.352c.258.258.403.607.403.972V5.25h12.25V2.875a1.375 1.375 0 0 1 2.75 0V5.25h2.375A3.25 3.25 0 0 1 30.5 8.5v18.75a3.25 3.25 0 0 1-3.25 3.25H4.75a3.25 3.25 0 0 1-3.25-3.25V8.5a3.25 3.25 0 0 1 3.25-3.25h1.875ZM8.5 9.875a2.375 2.375 0 1 0 0 4.75h15a2.375 2.375 0 1 0 0-4.75h-15Z" />
  </symbol>
  <symbol id="phone" viewBox="0 0 32 32">
    <title>phone</title>
    <path fill="var(--primary)" stroke="var(--primary)" stroke-width=".8" d="m8.366 2.633 1.388 8.316a1.475 1.475 0 0 1-.797 1.564l-2.903 1.45-.33.164.138.343A21.094 21.094 0 0 0 17.53 26.138l.343.138.165-.33 1.451-2.903a1.475 1.475 0 0 1 1.562-.796l8.316 1.387a1.475 1.475 0 0 1 1.233 1.454v4.037a1.475 1.475 0 0 1-1.475 1.475h-3.75C12.133 30.6 1.4 19.867 1.4 6.625v-3.75A1.475 1.475 0 0 1 2.875 1.4h4.037a1.475 1.475 0 0 1 1.454 1.233Z" />
  </symbol>
  <symbol id="bars-3" viewBox="0 0 32 32">
    <title>bars-3</title>
    <path fill="#000" stroke="#000" stroke-width=".727" d="M3.364 6.417c0-.416.16-.812.441-1.103.281-.29.66-.45 1.052-.45h22.286c.392 0 .77.16 1.052.45.281.29.441.687.441 1.103 0 .415-.16.811-.441 1.102-.281.29-.66.45-1.052.45H4.857c-.392 0-.77-.16-1.052-.45a1.585 1.585 0 0 1-.441-1.102Zm0 9.583c0-.415.16-.812.441-1.102.281-.29.66-.451 1.052-.451h22.286c.392 0 .77.16 1.052.45.281.291.441.688.441 1.103 0 .416-.16.812-.441 1.102-.281.29-.66.451-1.052.451H4.857c-.392 0-.77-.16-1.052-.45A1.585 1.585 0 0 1 3.364 16Zm0 9.583c0-.415.16-.811.441-1.102.281-.29.66-.45 1.052-.45h22.286c.392 0 .77.16 1.052.45.281.29.441.687.441 1.102 0 .416-.16.812-.441 1.103-.281.29-.66.45-1.052.45H4.857c-.392 0-.77-.16-1.052-.45a1.585 1.585 0 0 1-.441-1.103Z" />
  </symbol>
  <symbol id="chevron-right" viewBox="0 0 32 26">
    <title>chevron-right</title>
    <path fill="var(--gray-900)" fill-rule="evenodd" d="M9.232 23.99a2.311 2.311 0 0 1-.732-1.677c0-.628.263-1.232.732-1.676l8.233-7.81L9.232 5.02a2.308 2.308 0 0 1-.702-1.67 2.312 2.312 0 0 1 .732-1.656A2.57 2.57 0 0 1 11.01 1a2.574 2.574 0 0 1 1.758.666l10.001 9.485c.469.445.732 1.048.732 1.677s-.263 1.232-.732 1.676l-10 9.486a2.57 2.57 0 0 1-1.768.694 2.57 2.57 0 0 1-1.768-.694Z" clip-rule="evenodd" />
  </symbol>
  <symbol id="chevron-left" viewBox="0 0 32 26">
    <title>chevron-left</title>
    <path fill="var(--gray-900)" fill-rule="evenodd" d="M22.768 1.694c.469.445.732 1.048.732 1.677s-.263 1.232-.732 1.676l-8.233 7.81 8.233 7.808c.455.448.707 1.047.702 1.668a2.312 2.312 0 0 1-.732 1.657 2.57 2.57 0 0 1-1.747.694 2.574 2.574 0 0 1-1.758-.666L9.232 14.534a2.311 2.311 0 0 1-.732-1.677c0-.628.263-1.232.732-1.676l10-9.486A2.571 2.571 0 0 1 21 1c.663 0 1.3.25 1.768.694Z" clip-rule="evenodd" />
  </symbol>
  <symbol id="information-circle" viewBox="0 0 32 32">
    <title>information-circle</title>
    <path fill="#E02424" fill-rule="evenodd" d="M28.8 16a12.8 12.8 0 1 1-25.6 0 12.8 12.8 0 0 1 25.6 0Zm-11.2 6.4a1.6 1.6 0 1 1-3.2 0 1.6 1.6 0 0 1 3.2 0ZM16 8a1.6 1.6 0 0 0-1.6 1.6V16a1.6 1.6 0 0 0 3.2 0V9.6A1.6 1.6 0 0 0 16 8Z" clip-rule="evenodd" />
  </symbol>
  <symbol id="home" viewBox="0 0 32 32">
    <title>home</title>
    <path fill="#374151" d="M17.328 1.549a1.88 1.88 0 0 0-2.656 0L1.527 14.674a1.873 1.873 0 0 0 1.335 3.178 1.88 1.88 0 0 0 1.32-.527l.55-.549v12.349A1.873 1.873 0 0 0 6.612 31h3.755a1.88 1.88 0 0 0 1.878-1.875v-3.75a1.873 1.873 0 0 1 1.878-1.875h3.756a1.879 1.879 0 0 1 1.878 1.875v3.75A1.873 1.873 0 0 0 21.634 31h3.755a1.88 1.88 0 0 0 1.878-1.875V16.776l.55.55A1.88 1.88 0 0 0 31 15.992a1.873 1.873 0 0 0-.527-1.319L17.328 1.55Z" />
  </symbol>
  <symbol id="check-circle" viewBox="0 0 32 32">
    <title>check-circle</title>
    <path fill="#7D858D" fill-rule="evenodd" d="M16 31a15 15 0 1 0 0-30 15 15 0 0 0 0 30Zm6.95-17.424a1.875 1.875 0 0 0-2.65-2.652L14.124 17.1 11.7 14.675a1.875 1.875 0 0 0-2.652 2.652l3.75 3.75a1.875 1.875 0 0 0 2.652 0l7.5-7.5Z" clip-rule="evenodd" />
  </symbol>
  <symbol id="plus" viewBox="0 0 32 32">
    <title>plus</title>
    <path stroke="#7D858D" stroke-linecap="round" stroke-linejoin="round" stroke-width="2" d="M16 6v10m0 0v10m0-10h10m-10 0H6" />
  </symbol>
  <symbol id="arrow-small-white" viewBox="0 0 32 32">
    <title>arrow-small-white</title>
    <path fill="#fff" fill-rule="evenodd" d="M16.41 6.61a1.4 1.4 0 0 1 1.98 0l8.4 8.4a1.4 1.4 0 0 1 0 1.98l-8.4 8.4a1.4 1.4 0 0 1-1.98-1.98l6.01-6.01H6.2a1.4 1.4 0 0 1 0-2.8h16.22l-6.01-6.01a1.4 1.4 0 0 1 0-1.98Z" clip-rule="evenodd" />
  </symbol>
  <symbol id="ellipsis-horizontal" viewBox="0 0 32 32">
    <title>ellipsis-horizontal</title>
    <circle cx="8" cy="16" r="2" fill="#6B7280" />
    <circle cx="16" cy="16" r="2" fill="#6B7280" />
    <circle cx="24" cy="16" r="2" fill="#6B7280" />
  </symbol>
  <symbol id="squares-2x2" viewBox="0 0 32 32">
    <title>squares-2x2</title>
    <path fill="var(--primary-500)" d="M6 2a4 4 0 0 0-4 4v4a4 4 0 0 0 4 4h4a4 4 0 0 0 4-4V6a4 4 0 0 0-4-4H6Zm0 16a4 4 0 0 0-4 4v4a4 4 0 0 0 4 4h4a4 4 0 0 0 4-4v-4a4 4 0 0 0-4-4H6ZM18 6a4 4 0 0 1 4-4h4a4 4 0 0 1 4 4v4a4 4 0 0 1-4 4h-4a4 4 0 0 1-4-4V6Zm0 16a4 4 0 0 1 4-4h4a4 4 0 0 1 4 4v4a4 4 0 0 1-4 4h-4a4 4 0 0 1-4-4v-4Z" />
  </symbol>
  <symbol id="lock-closed" viewBox="0 0 32 32">
    <title>lock-closed</title>
    <path fill="var(--secondary-500)" fill-rule="evenodd" d="M8 14.4v-3.2a8 8 0 0 1 16 0v3.2a3.2 3.2 0 0 1 3.2 3.2v8a3.2 3.2 0 0 1-3.2 3.2H8a3.2 3.2 0 0 1-3.2-3.2v-8A3.2 3.2 0 0 1 8 14.4Zm12.8-3.2v3.2h-9.6v-3.2a4.8 4.8 0 1 1 9.6 0Z" clip-rule="evenodd" />
  </symbol>
  <symbol id="mail" viewBox="5 2 24 24">
    <title>mail</title>
    <path fill="var(--primary)" d="M4.804 10.238 16 15.835l11.196-5.597A2.8 2.8 0 0 0 24.4 7.6H7.6a2.8 2.8 0 0 0-2.796 2.638Z" />
    <path fill="var(--primary)" d="m27.2 13.365-11.2 5.6-11.2-5.6V21.6a2.8 2.8 0 0 0 2.8 2.8h16.8a2.8 2.8 0 0 0 2.8-2.8v-8.235Z" />
  </symbol>
  <symbol id="receipt-tax" viewBox="0 0 32 32">
    <title>receipt-tax</title>
    <path fill="#6B7280" fill-rule="evenodd" d="M8 3.2a3.2 3.2 0 0 0-3.2 3.2v22.4l5.6-3.2 5.6 3.2 5.6-3.2 5.6 3.2V6.4A3.2 3.2 0 0 0 24 3.2H8ZM12 8a2.4 2.4 0 1 0 0 4.8A2.4 2.4 0 0 0 12 8Zm9.931.469a1.6 1.6 0 0 0-2.262 0l-9.6 9.6a1.6 1.6 0 1 0 2.262 2.262l9.6-9.6a1.6 1.6 0 0 0 0-2.262ZM20 16a2.4 2.4 0 1 0 0 4.801A2.4 2.4 0 0 0 20 16Z" clip-rule="evenodd" />
  </symbol>
  <symbol id="star" viewBox="0 0 32 32">
    <title>star</title>
    <path fill="#7D858D" d="M14.478 4.683c.48-1.473 2.565-1.473 3.044 0l1.712 5.267a1.6 1.6 0 0 0 1.52 1.104h5.539c1.55 0 2.193 1.984.94 2.896l-4.48 3.255a1.6 1.6 0 0 0-.582 1.789l1.712 5.267c.48 1.473-1.208 2.7-2.464 1.789l-4.48-3.255a1.6 1.6 0 0 0-1.88 0l-4.48 3.255c-1.254.912-2.94-.316-2.462-1.79l1.712-5.266a1.6 1.6 0 0 0-.583-1.79l-4.478-3.252c-1.253-.912-.608-2.896.94-2.896h5.538a1.6 1.6 0 0 0 1.522-1.104l1.712-5.267-.002-.002Z" />
  </symbol>
  <symbol id="star-2" viewBox="0 0 32 32">
    <title>star-2</title>
    <path fill="var(--secondary-500)" d="M14.478 4.683c.48-1.473 2.565-1.473 3.044 0l1.712 5.267a1.6 1.6 0 0 0 1.52 1.104h5.539c1.55 0 2.193 1.984.94 2.896l-4.48 3.255a1.6 1.6 0 0 0-.582 1.789l1.712 5.267c.48 1.473-1.208 2.7-2.464 1.789l-4.48-3.255a1.6 1.6 0 0 0-1.88 0l-4.48 3.255c-1.254.912-2.94-.316-2.462-1.79l1.712-5.266a1.6 1.6 0 0 0-.583-1.79l-4.478-3.252c-1.253-.912-.608-2.896.94-2.896h5.538a1.6 1.6 0 0 0 1.522-1.104l1.712-5.267-.002-.002Z" />
  </symbol>
  <symbol id="star-primary" viewBox="0 0 32 32">
    <title>star-primary</title>
    <path fill="var(--primary-500)" d="M14.478 4.683c.48-1.473 2.565-1.473 3.044 0l1.712 5.267a1.6 1.6 0 0 0 1.52 1.104h5.539c1.55 0 2.193 1.984.94 2.896l-4.48 3.255a1.6 1.6 0 0 0-.582 1.789l1.712 5.267c.48 1.473-1.208 2.7-2.464 1.789l-4.48-3.255a1.6 1.6 0 0 0-1.88 0l-4.48 3.255c-1.254.912-2.94-.316-2.462-1.79l1.712-5.266a1.6 1.6 0 0 0-.583-1.79l-4.478-3.252c-1.253-.912-.608-2.896.94-2.896h5.538a1.6 1.6 0 0 0 1.522-1.104l1.712-5.267-.002-.002Z" />
  </symbol>
  <symbol id="code" viewBox="0 0 32 32">
    <title>code</title>
    <path fill="#6B7280" fill-rule="evenodd" d="M19.706 4.882a1.601 1.601 0 0 1 1.012 2.024l-6.4 19.2a1.6 1.6 0 0 1-3.036-1.012l6.4-19.2a1.601 1.601 0 0 1 2.024-1.012ZM9.13 10.069a1.6 1.6 0 0 1 0 2.262L5.462 16l3.67 3.669a1.6 1.6 0 1 1-2.263 2.262l-4.8-4.8a1.6 1.6 0 0 1 0-2.262l4.8-4.8a1.6 1.6 0 0 1 2.262 0Zm13.738 0a1.6 1.6 0 0 1 2.262 0l4.8 4.8a1.6 1.6 0 0 1 0 2.262l-4.8 4.8a1.6 1.6 0 1 1-2.262-2.262L26.538 16l-3.67-3.669a1.6 1.6 0 0 1 0-2.262Z" clip-rule="evenodd" />
  </symbol>
  <symbol id="presentation" viewBox="0 0 32 32">
    <title>presentation</title>
    <path fill="#6B7280" fill-rule="evenodd" d="M4.8 4.8a1.6 1.6 0 0 0 0 3.2v12.8A3.2 3.2 0 0 0 8 24h4.138l-2.07 2.069a1.6 1.6 0 1 0 2.263 2.262L16 24.662l3.669 3.67a1.6 1.6 0 0 0 2.262-2.263L19.862 24H24a3.2 3.2 0 0 0 3.2-3.2V8a1.6 1.6 0 1 0 0-3.2H4.8Zm18.731 7.531a1.6 1.6 0 0 0-2.262-2.262L16 15.338l-2.069-2.07a1.6 1.6 0 0 0-2.262 0l-3.2 3.2a1.6 1.6 0 1 0 2.262 2.263l2.069-2.069 2.069 2.07a1.6 1.6 0 0 0 2.262 0l6.4-6.4Z" clip-rule="evenodd" />
  </symbol>
  <symbol id="clock" viewBox="0 0 20 20">
    <title>clock</title>
    <path fill="var(--secondary-500)" fill-rule="evenodd" d="M9.998 19.6a9.6 9.6 0 1 0 0-19.2 9.6 9.6 0 0 0 0 19.2Zm1.2-14.4a1.2 1.2 0 1 0-2.4 0V10c0 .318.127.623.352.848l3.394 3.395a1.202 1.202 0 0 0 1.698-1.698l-3.044-3.042V5.2Z" clip-rule="evenodd" />
  </symbol>
  <symbol id="offers" viewBox="0 0 14 16">
    <title>offers</title>
    <path fill="var(--secondary-500)" fill-rule="evenodd" d="M2 0a2 2 0 0 0-2 2v14l3.5-2L7 16l3.5-2 3.5 2V2a2 2 0 0 0-2-2H2Zm2.5 3a1.5 1.5 0 1 0 0 3 1.5 1.5 0 0 0 0-3Zm6.207.293a1 1 0 0 0-1.414 0l-6 6a1 1 0 1 0 1.414 1.414l6-6a1 1 0 0 0 0-1.414ZM9.5 8a1.5 1.5 0 1 0 0 3 1.5 1.5 0 0 0 0-3Z" clip-rule="evenodd" />
  </symbol>
  <symbol id="team" viewBox="0 0 18 16">
    <title>team</title>
    <path fill="var(--white)" d="M12 3.5a3 3 0 1 1-6 0 3 3 0 0 1 6 0Zm5 2a2 2 0 1 1-4 0 2 2 0 0 1 4 0Zm-4 7a4 4 0 1 0-8 0v3h8v-3Zm-8-7a2 2 0 1 1-4 0 2 2 0 0 1 4 0Zm10 10v-3a5.972 5.972 0 0 0-.75-2.906A3.005 3.005 0 0 1 18 12.5v3h-3ZM3.75 9.594A5.973 5.973 0 0 0 3 12.5v3H0v-3a3 3 0 0 1 3.75-2.906Z" />
  </symbol>
</svg>