<svg width="196" height="149" viewBox="0 0 196 149" fill="none" xmlns="http://www.w3.org/2000/svg">
<path opacity="0.1" d="M0.704102 149V104.818C0.704102 92.2727 3.15865 79.4545 8.06774 66.3636C12.9768 53.2727 19.4541 40.9318 27.4996 29.3409C35.545 17.7499 44.2723 8.06812 53.6814 0.29541L92.1359 23C84.4996 35 78.2268 47.5454 73.3177 60.6363C68.545 73.7272 66.1586 88.3181 66.1586 104.409V149H0.704102ZM104 149V104.818C104 92.2727 106.454 79.4545 111.363 66.3636C116.272 53.2727 122.75 40.9318 130.795 29.3409C138.84 17.7499 147.568 8.06812 156.977 0.29541L195.431 23C187.795 35 181.522 47.5454 176.613 60.6363C171.84 73.7272 169.454 88.3181 169.454 104.409V149H104Z" fill="000000"/>
</svg>
