<svg xmlns="http://www.w3.org/2000/svg" style="display: none;">
<symbol id="youtube" viewBox="0 0 30 21">
    <title>youtube</title>
    <path d="M29.0534 3.22667C28.8875 2.60262 28.5607 2.03307 28.1056 1.57502C27.6505 1.11698 27.083 0.786501 26.46 0.616667C24.1667 7.28501e-08 15 0 15 0C15 0 5.83337 7.28501e-08 3.54004 0.616667C2.91707 0.786501 2.34962 1.11698 1.8945 1.57502C1.43938 2.03307 1.11255 2.60262 0.946707 3.22667C0.333374 5.53 0.333374 10.3333 0.333374 10.3333C0.333374 10.3333 0.333374 15.1367 0.946707 17.44C1.11255 18.064 1.43938 18.6336 1.8945 19.0916C2.34962 19.5497 2.91707 19.8802 3.54004 20.05C5.83337 20.6667 15 20.6667 15 20.6667C15 20.6667 24.1667 20.6667 26.46 20.05C27.083 19.8802 27.6505 19.5497 28.1056 19.0916C28.5607 18.6336 28.8875 18.064 29.0534 17.44C29.6667 15.1367 29.6667 10.3333 29.6667 10.3333C29.6667 10.3333 29.6667 5.53 29.0534 3.22667Z" fill="#FF0302"/>
    <path d="M12.0001 14.695V5.9717L19.6667 10.3334L12.0001 14.695Z" fill="#FEFEFE"/>
</symbol>
<symbol id="twitter" viewBox="0 0 30 24">
    <title>twitter</title>
    <path fill="#192751" d="M13.7 10 21.6.8h-1.9l-6.9 8-5.5-8H1l8.3 12.1L1 22.6h1.9l7.3-8.5 5.8 8.5h6.4L13.7 10zm-2.6 3-.8-1.2-6.7-9.6h2.9l5.4 7.8.8 1.2 7 10.1h-2.9L11.1 13z" />
</symbol>
<symbol id="twitter-white" viewBox="0 0 30 24">
    <title>twitter-white</title>
    <path fill="var(--white)" d="M13.7 10 21.6.8h-1.9l-6.9 8-5.5-8H1l8.3 12.1L1 22.6h1.9l7.3-8.5 5.8 8.5h6.4L13.7 10zm-2.6 3-.8-1.2-6.7-9.6h2.9l5.4 7.8.8 1.2 7 10.1h-2.9L11.1 13z" />
</symbol>
<symbol id="linkedin" viewBox="0 0 30 30">
    <title>linkedin</title>
    <path d="M27.5013 0.333313H2.49874C1.92445 0.333313 1.37368 0.56145 0.967597 0.967536C0.561511 1.37362 0.333374 1.92439 0.333374 2.49868V27.5013C0.333374 28.0756 0.561511 28.6263 0.967597 29.0324C1.37368 29.4385 1.92445 29.6666 2.49874 29.6666H27.5013C28.0756 29.6666 28.6264 29.4385 29.0325 29.0324C29.4386 28.6263 29.6667 28.0756 29.6667 27.5013V2.49868C29.6667 1.92439 29.4386 1.37362 29.0325 0.967536C28.6264 0.56145 28.0756 0.333313 27.5013 0.333313ZM9.07634 25.3216H4.66615V11.3129H9.07634V25.3216ZM6.86819 9.37165C6.36793 9.36883 5.87971 9.21789 5.46516 8.93786C5.05061 8.65784 4.72829 8.26129 4.53889 7.79827C4.34949 7.33524 4.3015 6.82648 4.40097 6.3362C4.50044 5.84592 4.74291 5.3961 5.09779 5.04349C5.45266 4.69089 5.90404 4.45131 6.39494 4.35499C6.88585 4.25867 7.39429 4.30993 7.85609 4.5023C8.3179 4.69466 8.71237 5.01952 8.98972 5.43586C9.26707 5.85221 9.41488 6.34138 9.41448 6.84165C9.4192 7.17658 9.35644 7.50903 9.22994 7.81919C9.10345 8.12934 8.9158 8.41086 8.67818 8.64695C8.44057 8.88304 8.15786 9.06888 7.84689 9.19339C7.53593 9.31789 7.20308 9.37852 6.86819 9.37165ZM25.3319 25.3339H20.9237V17.6807C20.9237 15.4237 19.9643 14.727 18.7258 14.727C17.418 14.727 16.1347 15.7129 16.1347 17.7378V25.3339H11.7245V11.3231H15.9656V13.2644H16.0226C16.4484 12.4028 17.9395 10.93 20.2149 10.93C22.6756 10.93 25.3339 12.3905 25.3339 16.6683L25.3319 25.3339Z" fill="#0A66C2"/>
</symbol>
<symbol id="linkedin-white" viewBox="0 0 30 30">
    <title>linkedin-white</title>
    <path d="M27.5013 0.333313H2.49874C1.92445 0.333313 1.37368 0.56145 0.967597 0.967536C0.561511 1.37362 0.333374 1.92439 0.333374 2.49868V27.5013C0.333374 28.0756 0.561511 28.6263 0.967597 29.0324C1.37368 29.4385 1.92445 29.6666 2.49874 29.6666H27.5013C28.0756 29.6666 28.6264 29.4385 29.0325 29.0324C29.4386 28.6263 29.6667 28.0756 29.6667 27.5013V2.49868C29.6667 1.92439 29.4386 1.37362 29.0325 0.967536C28.6264 0.56145 28.0756 0.333313 27.5013 0.333313ZM9.07634 25.3216H4.66615V11.3129H9.07634V25.3216ZM6.86819 9.37165C6.36793 9.36883 5.87971 9.21789 5.46516 8.93786C5.05061 8.65784 4.72829 8.26129 4.53889 7.79827C4.34949 7.33524 4.3015 6.82648 4.40097 6.3362C4.50044 5.84592 4.74291 5.3961 5.09779 5.04349C5.45266 4.69089 5.90404 4.45131 6.39494 4.35499C6.88585 4.25867 7.39429 4.30993 7.85609 4.5023C8.3179 4.69466 8.71237 5.01952 8.98972 5.43586C9.26707 5.85221 9.41488 6.34138 9.41448 6.84165C9.4192 7.17658 9.35644 7.50903 9.22994 7.81919C9.10345 8.12934 8.9158 8.41086 8.67818 8.64695C8.44057 8.88304 8.15786 9.06888 7.84689 9.19339C7.53593 9.31789 7.20308 9.37852 6.86819 9.37165ZM25.3319 25.3339H20.9237V17.6807C20.9237 15.4237 19.9643 14.727 18.7258 14.727C17.418 14.727 16.1347 15.7129 16.1347 17.7378V25.3339H11.7245V11.3231H15.9656V13.2644H16.0226C16.4484 12.4028 17.9395 10.93 20.2149 10.93C22.6756 10.93 25.3339 12.3905 25.3339 16.6683L25.3319 25.3339Z" fill="var(--white)"/>
</symbol>
<symbol id="instagram" viewBox="0 0 30 30">
    <title>instagram</title>
    <path d="M15.0086 2.97601C18.9297 2.97601 19.394 2.9932 20.9361 3.06199C22.3692 3.12505 23.1431 3.36582 23.659 3.56646C24.3412 3.83015 24.8342 4.15117 25.3444 4.66137C25.8603 5.1773 26.1756 5.66456 26.4393 6.34673C26.6399 6.86266 26.8807 7.64228 26.9438 9.06968C27.0125 10.6175 27.0297 11.0818 27.0297 14.9971C27.0297 18.9182 27.0125 19.3825 26.9438 20.9245C26.8807 22.3577 26.6399 23.1316 26.4393 23.6475C26.1756 24.3297 25.8546 24.8227 25.3444 25.3329C24.8285 25.8488 24.3412 26.1641 23.659 26.4278C23.1431 26.6284 22.3635 26.8692 20.9361 26.9322C19.3883 27.001 18.924 27.0182 15.0086 27.0182C11.0876 27.0182 10.6233 27.001 9.08121 26.9322C7.64808 26.8692 6.87419 26.6284 6.35826 26.4278C5.67609 26.1641 5.18309 25.8431 4.6729 25.3329C4.15697 24.8169 3.84168 24.3297 3.57798 23.6475C3.37734 23.1316 3.13658 22.3519 3.07352 20.9245C3.00473 19.3768 2.98753 18.9124 2.98753 14.9971C2.98753 11.0761 3.00473 10.6117 3.07352 9.06968C3.13658 7.63655 3.37734 6.86266 3.57798 6.34673C3.84168 5.66456 4.1627 5.17156 4.6729 4.66137C5.18882 4.14544 5.67609 3.83015 6.35826 3.56646C6.87419 3.36582 7.65381 3.12505 9.08121 3.06199C10.6233 2.9932 11.0876 2.97601 15.0086 2.97601ZM15.0086 0.333313C11.0245 0.333313 10.5258 0.350511 8.96082 0.419301C7.40158 0.488091 6.3296 0.740322 5.40093 1.10147C4.43213 1.47982 3.61238 1.97855 2.79836 2.7983C1.97861 3.61232 1.47988 4.43207 1.10153 5.39513C0.740383 6.32953 0.488152 7.39578 0.419362 8.95503C0.350572 10.5257 0.333374 11.0245 0.333374 15.0086C0.333374 18.9927 0.350572 19.4914 0.419362 21.0564C0.488152 22.6156 0.740383 23.6876 1.10153 24.6163C1.47988 25.5851 1.97861 26.4048 2.79836 27.2189C3.61238 28.0329 4.43213 28.5373 5.39519 28.91C6.3296 29.2711 7.39584 29.5233 8.95509 29.5921C10.5201 29.6609 11.0188 29.6781 15.0029 29.6781C18.987 29.6781 19.4857 29.6609 21.0507 29.5921C22.61 29.5233 23.6819 29.2711 24.6106 28.91C25.5737 28.5373 26.3934 28.0329 27.2075 27.2189C28.0215 26.4048 28.5259 25.5851 28.8985 24.622C29.2597 23.6876 29.5119 22.6214 29.5807 21.0621C29.6495 19.4971 29.6667 18.9984 29.6667 15.0143C29.6667 11.0302 29.6495 10.5315 29.5807 8.9665C29.5119 7.40725 29.2597 6.33527 28.8985 5.4066C28.5374 4.43207 28.0387 3.61232 27.2189 2.7983C26.4049 1.98428 25.5851 1.47982 24.6221 1.1072C23.6877 0.746055 22.6214 0.493824 21.0622 0.425033C19.4915 0.350511 18.9927 0.333313 15.0086 0.333313Z" fill="#CD486B"/>
    <path d="M15.0086 7.47031C10.8468 7.47031 7.47037 10.8468 7.47037 15.0086C7.47037 19.1704 10.8468 22.5468 15.0086 22.5468C19.1705 22.5468 22.5469 19.1704 22.5469 15.0086C22.5469 10.8468 19.1705 7.47031 15.0086 7.47031ZM15.0086 19.8984C12.3086 19.8984 10.1188 17.7086 10.1188 15.0086C10.1188 12.3086 12.3086 10.1187 15.0086 10.1187C17.7087 10.1187 19.8985 12.3086 19.8985 15.0086C19.8985 17.7086 17.7087 19.8984 15.0086 19.8984Z" fill="#CD486B"/>
    <path d="M24.6049 7.17223C24.6049 8.14676 23.8138 8.93212 22.845 8.93212C21.8705 8.93212 21.0851 8.14103 21.0851 7.17223C21.0851 6.1977 21.8762 5.41234 22.845 5.41234C23.8138 5.41234 24.6049 6.20343 24.6049 7.17223Z" fill="#CD486B"/>
</symbol>
<symbol id="facebook" viewBox="0 0 30 30">
    <title>facebook</title>
    <path d="M29.6667 15C29.6667 6.8998 23.1002 0.333313 15 0.333313C6.89986 0.333313 0.333374 6.8998 0.333374 15C0.333374 22.3204 5.69673 28.3882 12.7084 29.4885V19.2396H8.98442V15H12.7084V11.7687C12.7084 8.0929 14.8981 6.06248 18.2482 6.06248C19.8524 6.06248 21.5313 6.34894 21.5313 6.34894V9.95831H19.6819C17.86 9.95831 17.2917 11.089 17.2917 12.25V15H21.3594L20.7092 19.2396H17.2917V29.4885C24.3033 28.3882 29.6667 22.3204 29.6667 15Z" fill="#1877F2"/>
    <path d="M20.7092 19.2396L21.3594 15H17.2917V12.25C17.2917 11.0901 17.86 9.95831 19.6819 9.95831H21.5313V6.34894C21.5313 6.34894 19.8524 6.06248 18.2482 6.06248C14.8981 6.06248 12.7084 8.0929 12.7084 11.7687V15H8.98442V19.2396H12.7084V29.4885C14.2269 29.726 15.7732 29.726 17.2917 29.4885V19.2396H20.7092Z" fill="var(--white)"/>
</symbol>
<symbol id="facebook-white" viewBox="0 0 30 30">
    <title>facebook-white</title>
    <path d="M29.6667 15C29.6667 6.8998 23.1002 0.333313 15 0.333313C6.89986 0.333313 0.333374 6.8998 0.333374 15C0.333374 22.3204 5.69673 28.3882 12.7084 29.4885V19.2396H8.98442V15H12.7084V11.7687C12.7084 8.0929 14.8981 6.06248 18.2482 6.06248C19.8524 6.06248 21.5313 6.34894 21.5313 6.34894V9.95831H19.6819C17.86 9.95831 17.2917 11.089 17.2917 12.25V15H21.3594L20.7092 19.2396H17.2917V29.4885C24.3033 28.3882 29.6667 22.3204 29.6667 15Z" fill="var(--white)"/>
</symbol>
<symbol id="pinterest" viewBox="0 0 24 24">
    <title>pinterest</title>
    <path fill="var(--white)" d="M12 23c6.075 0 11-4.925 11-11S18.075 1 12 1 1 5.925 1 12s4.925 11 11 11Z" />
    <path fill="#E60019" d="M12 1C5.925 1 1 5.925 1 12c0 4.663 2.897 8.646 6.99 10.249-.1-.87-.182-2.21.036-3.16.199-.86 1.285-5.468 1.285-5.468s-.326-.661-.326-1.63c0-1.53.887-2.67 1.992-2.67.941 0 1.394.705 1.394 1.547 0 .942-.597 2.354-.914 3.667-.263 1.095.552 1.992 1.63 1.992 1.955 0 3.458-2.064 3.458-5.034 0-2.635-1.892-4.472-4.6-4.472-3.132 0-4.97 2.344-4.97 4.77 0 .942.362 1.956.815 2.509.09.108.1.208.073.316-.082.345-.272 1.096-.308 1.25-.046.199-.163.244-.371.145-1.377-.643-2.237-2.644-2.237-4.264 0-3.468 2.517-6.655 7.27-6.655 3.812 0 6.781 2.716 6.781 6.356 0 3.793-2.39 6.844-5.703 6.844-1.114 0-2.164-.58-2.517-1.267l-.688 2.616c-.245.96-.915 2.155-1.367 2.888 1.032.317 2.118.49 3.259.49 6.075 0 11-4.926 11-11A10.977 10.977 0 0 0 12 1Z" />
</symbol>
<symbol id="pinterest-white" viewBox="0 0 24 24">
    <title>pinterest-white</title>
    <path fill="var(--white)" d="M12 1C5.925 1 1 5.925 1 12c0 4.663 2.897 8.646 6.99 10.249-.1-.87-.182-2.21.036-3.16.199-.86 1.285-5.468 1.285-5.468s-.326-.661-.326-1.63c0-1.53.887-2.67 1.992-2.67.941 0 1.394.705 1.394 1.547 0 .942-.597 2.354-.914 3.667-.263 1.095.552 1.992 1.63 1.992 1.955 0 3.458-2.064 3.458-5.034 0-2.635-1.892-4.472-4.6-4.472-3.132 0-4.97 2.344-4.97 4.77 0 .942.362 1.956.815 2.509.09.108.1.208.073.316-.082.345-.272 1.096-.308 1.25-.046.199-.163.244-.371.145-1.377-.643-2.237-2.644-2.237-4.264 0-3.468 2.517-6.655 7.27-6.655 3.812 0 6.781 2.716 6.781 6.356 0 3.793-2.39 6.844-5.703 6.844-1.114 0-2.164-.58-2.517-1.267l-.688 2.616c-.245.96-.915 2.155-1.367 2.888 1.032.317 2.118.49 3.259.49 6.075 0 11-4.926 11-11A10.977 10.977 0 0 0 12 1Z" />
</symbol>
<symbol id="link" viewBox="0 0 24 24">
    <title>link</title>
    <path fill="#111928" fill-rule="evenodd" d="M15.103 5.503a2.4 2.4 0 1 1 3.394 3.394l-3.6 3.6a2.4 2.4 0 0 1-3.394 0 1.2 1.2 0 0 0-1.697 1.697 4.8 4.8 0 0 0 6.787 0l3.6-3.6a4.8 4.8 0 0 0-6.787-6.788l-1.8 1.8a1.2 1.2 0 1 0 1.697 1.697l1.8-1.8Zm-6 6a2.4 2.4 0 0 1 3.394 0 1.2 1.2 0 1 0 1.696-1.697 4.8 4.8 0 0 0-6.787 0l-3.6 3.6a4.8 4.8 0 1 0 6.787 6.788l1.8-1.8a1.2 1.2 0 1 0-1.696-1.697l-1.8 1.8a2.399 2.399 0 1 1-3.394-3.394l3.6-3.6Z" clip-rule="evenodd" />
</symbol>
<symbol id="link-white" viewBox="0 0 24 24">
    <title>link-white</title>
    <path fill="var(--white)" fill-rule="evenodd" d="M15.103 5.503a2.4 2.4 0 1 1 3.394 3.394l-3.6 3.6a2.4 2.4 0 0 1-3.394 0 1.2 1.2 0 0 0-1.697 1.697 4.8 4.8 0 0 0 6.787 0l3.6-3.6a4.8 4.8 0 0 0-6.787-6.788l-1.8 1.8a1.2 1.2 0 1 0 1.697 1.697l1.8-1.8Zm-6 6a2.4 2.4 0 0 1 3.394 0 1.2 1.2 0 1 0 1.696-1.697 4.8 4.8 0 0 0-6.787 0l-3.6 3.6a4.8 4.8 0 1 0 6.787 6.788l1.8-1.8a1.2 1.2 0 1 0-1.696-1.697l-1.8 1.8a2.399 2.399 0 1 1-3.394-3.394l3.6-3.6Z" clip-rule="evenodd" />
</symbol>
</svg>